# xmcd
#
# Track frame offsets: 
#        150
#        34022
#        59252
#        94764
#        115950
#        143637
#        178525
#        213309
#        242013
#        268837
#
# Disc length: 3872 seconds
#
# Revision: 1
# Processed by: cddbd v1.5.2PL0 Copyright (c) Steve Scherf et al.
# Submitted via: ExactAudioCopy v0.99pb3
#
DISCID=8a0f1e0a
DTITLE=Scott O'Dell - Island of the Blue Dolphin - Disc 2 of 4
DYEAR=1960
DGENRE=Audiobook
TTITLE0=Disc 2.A
TTITLE1=Disc 2.B
TTITLE2=Disc 2.C
TTITLE3=Disc 2.D
TTITLE4=Disc 2.E
TTITLE5=Disc 2.F
TTITLE6=Disc 2.G
TTITLE7=Disc 2.H
TTITLE8=Disc 2.I
TTITLE9=Disc 2.J
EXTD=Island of the Blue Dolphins by Scott O'Dell\nread by Tantoo Cardi
EXTD=nal 4 CDs
EXTT0=
EXTT1=
EXTT2=
EXTT3=
EXTT4=
EXTT5=
EXTT6=
EXTT7=
EXTT8=
EXTT9=
PLAYORDER=
